<svg width="250" height="100" viewBox="0 0 250 100" fill="none" xmlns="http://www.w3.org/2000/svg">
<rect x="0.5" y="0.5" width="249" height="99" fill="white"/>
<rect x="0.5" y="0.5" width="249" height="99" stroke="black"/>
<path d="M43.0105 37.6197C43.0105 35.5699 41.3297 33.8891 39.28 33.8891C37.2302 33.8891 35.5495 35.5699 35.5495 37.6197C35.5495 39.6694 37.2302 41.3502 39.28 41.3502C41.3297 41.3502 43.0105 39.6694 43.0105 37.6197Z" fill="#D0000F"/>
<path d="M64.2045 37.6197C64.2045 35.5699 62.5237 33.8891 60.474 33.8891C58.4243 33.8891 56.7435 35.5699 56.7435 37.6197C56.7435 39.6694 58.4243 41.3502 60.474 41.3502C62.5237 41.3502 64.2045 39.6694 64.2045 37.6197Z" fill="#D0000F"/>
<path d="M79.4136 75.7856H75.0682V72.3831H79.4136C80.1925 72.3831 80.8075 71.7681 80.8075 70.9892C80.8075 70.2104 80.1925 69.5954 79.4136 69.5954H75.0682V69.1035C75.0682 68.3246 74.4533 67.7097 73.6744 67.7097C70.1898 67.7097 67.6892 69.2675 66.7873 71.8501C66.6643 71.8091 66.5413 71.7682 66.3773 71.7682H23.8659V24.1734H75.2322V56.9691C75.2322 58.2399 76.298 59.3058 77.5689 59.3058C78.8397 59.3058 79.9056 58.2809 79.9056 56.9691V21.8367C79.9056 20.5659 78.8397 19.5 77.5689 19.5H21.5292C20.2584 19.5 19.1925 20.5249 19.1925 21.8367V74.1048C19.1925 75.3757 20.2174 76.4415 21.5292 76.4415H66.3773C66.5003 76.4415 66.6233 76.4005 66.7463 76.3595C67.7712 79.3522 70.8048 80.5 73.6744 80.5C74.4533 80.5 75.0682 79.8851 75.0682 79.1062V78.6142H79.4136C80.1925 78.6142 80.8075 77.9993 80.8075 77.2204C80.8075 76.4415 80.1925 75.7856 79.4136 75.7856ZM72.2806 77.5894C70.7638 77.3024 69.165 76.4415 69.165 74.1048C69.165 71.7272 70.7638 70.9073 72.2806 70.6203V77.5894Z" fill="#D0000F"/>
<path d="M50.5534 58.609C46.4129 58.609 43.0104 57.9941 42.8054 57.9941C41.4116 57.7481 40.5097 56.4363 40.7557 55.0425C41.0016 53.6486 42.2725 52.7468 43.7073 52.9927C43.7893 52.9927 50.7584 54.2226 56.2107 52.9927C57.6045 52.7058 58.9573 53.5666 59.2443 54.9195C59.5312 56.3133 58.6703 57.6661 57.3175 57.9531C55.0628 58.445 52.7261 58.609 50.5534 58.609Z" fill="#D0000F"/>
<path d="M112.299 30.2273L106.86 45.5H102.883L97.4438 30.2273H101.282L104.792 41.5724H104.951L108.471 30.2273H112.299ZM114.79 45.5V30.2273H118.389V45.5H114.79ZM116.599 28.0597C116.029 28.0597 115.539 27.8707 115.128 27.4929C114.717 27.1084 114.511 26.6477 114.511 26.1108C114.511 25.5672 114.717 25.1065 115.128 24.7287C115.539 24.3442 116.029 24.152 116.599 24.152C117.176 24.152 117.667 24.3442 118.071 24.7287C118.482 25.1065 118.687 25.5672 118.687 26.1108C118.687 26.6477 118.482 27.1084 118.071 27.4929C117.667 27.8707 117.176 28.0597 116.599 28.0597ZM126.485 45.8082C125.518 45.8082 124.646 45.6359 123.87 45.2912C123.101 44.9399 122.492 44.4228 122.041 43.7401C121.597 43.0573 121.375 42.2154 121.375 41.2145C121.375 40.3527 121.534 39.6402 121.852 39.0767C122.17 38.5133 122.604 38.0625 123.154 37.7244C123.705 37.3864 124.324 37.1312 125.014 36.9588C125.71 36.7798 126.429 36.6506 127.171 36.571C128.066 36.4782 128.792 36.3954 129.349 36.3224C129.906 36.2429 130.31 36.1236 130.562 35.9645C130.821 35.7988 130.95 35.5436 130.95 35.1989V35.1392C130.95 34.3902 130.728 33.8101 130.284 33.3991C129.84 32.9882 129.2 32.7827 128.365 32.7827C127.483 32.7827 126.784 32.9749 126.267 33.3594C125.756 33.7438 125.412 34.1979 125.233 34.7216L121.872 34.2443C122.137 33.3163 122.574 32.5407 123.184 31.9176C123.794 31.2879 124.54 30.8172 125.421 30.5057C126.303 30.1875 127.278 30.0284 128.345 30.0284C129.081 30.0284 129.813 30.1146 130.542 30.2869C131.271 30.4593 131.938 30.7443 132.541 31.142C133.144 31.5331 133.628 32.0668 133.992 32.7429C134.364 33.419 134.549 34.2642 134.549 35.2784V45.5H131.089V43.402H130.97C130.751 43.8262 130.443 44.224 130.045 44.5952C129.654 44.9598 129.16 45.2547 128.564 45.4801C127.974 45.6989 127.281 45.8082 126.485 45.8082ZM127.42 43.1634C128.143 43.1634 128.769 43.0208 129.299 42.7358C129.83 42.4441 130.237 42.0597 130.522 41.5824C130.814 41.1051 130.96 40.5848 130.96 40.0213V38.2216C130.847 38.3144 130.655 38.4006 130.383 38.4801C130.118 38.5597 129.82 38.6293 129.488 38.6889C129.157 38.7486 128.829 38.8016 128.504 38.848C128.179 38.8944 127.897 38.9342 127.659 38.9673C127.122 39.0402 126.641 39.1596 126.217 39.3253C125.793 39.491 125.458 39.723 125.213 40.0213C124.967 40.313 124.845 40.6908 124.845 41.1548C124.845 41.8177 125.087 42.3182 125.571 42.6562C126.055 42.9943 126.671 43.1634 127.42 43.1634ZM149.394 30.7344C149.302 29.866 148.911 29.1899 148.221 28.706C147.538 28.2221 146.65 27.9801 145.556 27.9801C144.787 27.9801 144.128 28.0961 143.578 28.3281C143.028 28.5601 142.607 28.875 142.315 29.2727C142.023 29.6705 141.874 30.1245 141.867 30.6349C141.867 31.0592 141.964 31.4271 142.156 31.7386C142.355 32.0502 142.623 32.3153 142.961 32.5341C143.299 32.7462 143.674 32.9252 144.085 33.071C144.496 33.2169 144.91 33.3395 145.328 33.4389L147.237 33.9162C148.006 34.0952 148.745 34.3371 149.454 34.642C150.17 34.947 150.81 35.3314 151.373 35.7955C151.943 36.2595 152.394 36.8196 152.725 37.4759C153.057 38.1321 153.223 38.901 153.223 39.7827C153.223 40.9759 152.918 42.0265 152.308 42.9347C151.698 43.8362 150.816 44.5421 149.663 45.0526C148.516 45.5563 147.127 45.8082 145.497 45.8082C143.912 45.8082 142.537 45.563 141.37 45.0724C140.21 44.5819 139.302 43.866 138.646 42.9247C137.996 41.9834 137.645 40.8366 137.592 39.4844H141.221C141.274 40.1937 141.493 40.7836 141.877 41.2543C142.262 41.7249 142.762 42.0762 143.379 42.3082C144.002 42.5402 144.698 42.6562 145.467 42.6562C146.269 42.6562 146.972 42.5369 147.575 42.2983C148.185 42.053 148.662 41.715 149.007 41.2841C149.351 40.8466 149.527 40.3362 149.534 39.7528C149.527 39.2225 149.371 38.785 149.066 38.4403C148.761 38.089 148.334 37.7973 147.784 37.5653C147.24 37.3267 146.604 37.1146 145.875 36.929L143.558 36.3324C141.881 35.9015 140.555 35.2486 139.581 34.3736C138.613 33.492 138.129 32.322 138.129 30.8636C138.129 29.6638 138.454 28.6132 139.103 27.7116C139.76 26.8101 140.651 26.1108 141.778 25.6136C142.905 25.1098 144.181 24.858 145.606 24.858C147.051 24.858 148.317 25.1098 149.404 25.6136C150.498 26.1108 151.357 26.8035 151.98 27.6918C152.603 28.5734 152.924 29.5876 152.944 30.7344H149.394ZM163.014 45.7983C161.523 45.7983 160.23 45.4702 159.136 44.8139C158.043 44.1577 157.194 43.2396 156.591 42.0597C155.994 40.8797 155.696 39.5009 155.696 37.9233C155.696 36.3456 155.994 34.9635 156.591 33.777C157.194 32.5904 158.043 31.669 159.136 31.0128C160.23 30.3565 161.523 30.0284 163.014 30.0284C164.506 30.0284 165.798 30.3565 166.892 31.0128C167.986 31.669 168.831 32.5904 169.427 33.777C170.031 34.9635 170.332 36.3456 170.332 37.9233C170.332 39.5009 170.031 40.8797 169.427 42.0597C168.831 43.2396 167.986 44.1577 166.892 44.8139C165.798 45.4702 164.506 45.7983 163.014 45.7983ZM163.034 42.9148C163.843 42.9148 164.519 42.6927 165.062 42.2486C165.606 41.7978 166.01 41.1946 166.276 40.4389C166.547 39.6832 166.683 38.8414 166.683 37.9134C166.683 36.9787 166.547 36.1335 166.276 35.3778C166.01 34.6155 165.606 34.009 165.062 33.5582C164.519 33.1075 163.843 32.8821 163.034 32.8821C162.205 32.8821 161.516 33.1075 160.966 33.5582C160.422 34.009 160.015 34.6155 159.743 35.3778C159.478 36.1335 159.345 36.9787 159.345 37.9134C159.345 38.8414 159.478 39.6832 159.743 40.4389C160.015 41.1946 160.422 41.7978 160.966 42.2486C161.516 42.6927 162.205 42.9148 163.034 42.9148ZM180.049 45.7983C178.525 45.7983 177.215 45.4635 176.122 44.794C175.035 44.1245 174.196 43.1998 173.606 42.0199C173.023 40.8333 172.731 39.4678 172.731 37.9233C172.731 36.3722 173.029 35.0033 173.626 33.8168C174.223 32.6236 175.064 31.6955 176.152 31.0327C177.245 30.3632 178.538 30.0284 180.029 30.0284C181.269 30.0284 182.366 30.2571 183.321 30.7145C184.282 31.1652 185.047 31.8049 185.617 32.6335C186.188 33.4555 186.512 34.4167 186.592 35.517H183.152C183.012 34.7812 182.681 34.1681 182.157 33.6776C181.64 33.1804 180.947 32.9318 180.079 32.9318C179.343 32.9318 178.697 33.1307 178.14 33.5284C177.583 33.9195 177.149 34.483 176.838 35.2188C176.533 35.9545 176.38 36.8362 176.38 37.8636C176.38 38.9044 176.533 39.7992 176.838 40.5483C177.143 41.2907 177.57 41.8641 178.12 42.2685C178.677 42.6662 179.33 42.8651 180.079 42.8651C180.609 42.8651 181.083 42.7656 181.501 42.5668C181.925 42.3613 182.28 42.0663 182.565 41.6818C182.85 41.2973 183.046 40.83 183.152 40.2798H186.592C186.506 41.3603 186.188 42.3182 185.637 43.1534C185.087 43.982 184.338 44.6316 183.39 45.1023C182.442 45.5663 181.329 45.7983 180.049 45.7983ZM192.829 40.7074L192.819 36.3622H193.396L198.884 30.2273H203.09L196.339 37.7443H195.593L192.829 40.7074ZM189.548 45.5V25.1364H193.147V45.5H189.548ZM199.133 45.5L194.161 38.5497L196.587 36.0142L203.438 45.5H199.133ZM211.621 45.7983C210.09 45.7983 208.768 45.4801 207.654 44.8438C206.547 44.2008 205.695 43.2926 205.099 42.1193C204.502 40.9394 204.204 39.5507 204.204 37.9531C204.204 36.3821 204.502 35.0033 205.099 33.8168C205.702 32.6236 206.544 31.6955 207.624 31.0327C208.705 30.3632 209.974 30.0284 211.432 30.0284C212.374 30.0284 213.262 30.1809 214.097 30.4858C214.939 30.7841 215.682 31.2481 216.325 31.8778C216.974 32.5076 217.485 33.3097 217.856 34.2841C218.227 35.2519 218.413 36.4053 218.413 37.7443V38.848H205.894V36.4219H214.962C214.956 35.7325 214.807 35.1193 214.515 34.5824C214.223 34.0388 213.816 33.6113 213.292 33.2997C212.775 32.9882 212.172 32.8324 211.482 32.8324C210.746 32.8324 210.1 33.0114 209.543 33.3693C208.986 33.7206 208.552 34.1847 208.241 34.7614C207.936 35.3314 207.78 35.9579 207.773 36.6406V38.7585C207.773 39.6468 207.936 40.4091 208.261 41.0455C208.585 41.6752 209.039 42.1591 209.623 42.4972C210.206 42.8286 210.889 42.9943 211.671 42.9943C212.195 42.9943 212.669 42.9214 213.093 42.7756C213.517 42.6231 213.885 42.401 214.197 42.1094C214.508 41.8177 214.744 41.4564 214.903 41.0256L218.263 41.4034C218.051 42.2917 217.647 43.0672 217.05 43.7301C216.46 44.3864 215.705 44.8968 214.783 45.2614C213.862 45.6193 212.808 45.7983 211.621 45.7983ZM229.084 30.2273V33.0114H220.304V30.2273H229.084ZM222.472 26.5682H226.071V40.9062C226.071 41.3902 226.144 41.7614 226.29 42.0199C226.443 42.2718 226.641 42.4441 226.887 42.5369C227.132 42.6297 227.404 42.6761 227.702 42.6761C227.927 42.6761 228.133 42.6596 228.318 42.6264C228.511 42.5933 228.657 42.5634 228.756 42.5369L229.363 45.3509C229.17 45.4171 228.895 45.4901 228.537 45.5696C228.186 45.6491 227.755 45.6955 227.245 45.7088C226.343 45.7353 225.531 45.5994 224.809 45.3011C224.086 44.9962 223.513 44.5256 223.088 43.8892C222.671 43.2528 222.465 42.4574 222.472 41.5028V26.5682Z" fill="black"/>
<path d="M98.9211 75.5V58.0455H104.819C106.188 58.0455 107.307 58.2926 108.177 58.7869C109.052 59.2756 109.7 59.9375 110.12 60.7727C110.54 61.608 110.751 62.5398 110.751 63.5682C110.751 64.5966 110.54 65.5312 110.12 66.3722C109.705 67.2131 109.063 67.8835 108.194 68.3835C107.325 68.8778 106.211 69.125 104.853 69.125H100.626V67.25H104.785C105.722 67.25 106.475 67.0881 107.043 66.7642C107.611 66.4403 108.023 66.0028 108.279 65.4517C108.54 64.8949 108.671 64.267 108.671 63.5682C108.671 62.8693 108.54 62.2443 108.279 61.6932C108.023 61.142 107.609 60.7102 107.035 60.3977C106.461 60.0795 105.7 59.9205 104.751 59.9205H101.035V75.5H98.9211ZM117.735 75.8068C116.905 75.8068 116.153 75.6506 115.476 75.3381C114.8 75.0199 114.263 74.5625 113.866 73.9659C113.468 73.3636 113.269 72.6364 113.269 71.7841C113.269 71.0341 113.417 70.4261 113.712 69.9602C114.008 69.4886 114.403 69.1193 114.897 68.8523C115.391 68.5852 115.937 68.3864 116.533 68.2557C117.136 68.1193 117.741 68.0114 118.349 67.9318C119.144 67.8295 119.789 67.7528 120.283 67.7017C120.783 67.6449 121.147 67.5511 121.374 67.4205C121.607 67.2898 121.724 67.0625 121.724 66.7386V66.6705C121.724 65.8295 121.494 65.1761 121.033 64.7102C120.579 64.2443 119.888 64.0114 118.962 64.0114C118.002 64.0114 117.249 64.2216 116.704 64.642C116.158 65.0625 115.775 65.5114 115.553 65.9886L113.644 65.3068C113.985 64.5114 114.44 63.892 115.008 63.4489C115.582 63 116.207 62.6875 116.883 62.5114C117.565 62.3295 118.235 62.2386 118.894 62.2386C119.315 62.2386 119.798 62.2898 120.343 62.392C120.894 62.4886 121.425 62.6903 121.937 62.9972C122.454 63.304 122.883 63.767 123.224 64.3864C123.565 65.0057 123.735 65.8352 123.735 66.875V75.5H121.724V73.7273H121.621C121.485 74.0114 121.258 74.3153 120.94 74.6392C120.621 74.9631 120.198 75.2386 119.67 75.4659C119.141 75.6932 118.496 75.8068 117.735 75.8068ZM118.042 74C118.837 74 119.508 73.8438 120.053 73.5312C120.604 73.2188 121.019 72.8153 121.298 72.321C121.582 71.8267 121.724 71.3068 121.724 70.7614V68.9205C121.638 69.0227 121.451 69.1165 121.161 69.2017C120.877 69.2812 120.548 69.3523 120.173 69.4148C119.803 69.4716 119.442 69.5227 119.09 69.5682C118.744 69.608 118.462 69.642 118.246 69.6705C117.724 69.7386 117.235 69.8494 116.78 70.0028C116.332 70.1506 115.968 70.375 115.69 70.6761C115.417 70.9716 115.28 71.375 115.28 71.8864C115.28 72.5852 115.539 73.1136 116.056 73.4716C116.579 73.8239 117.241 74 118.042 74ZM127.406 75.5V62.4091H129.349V64.3864H129.486C129.724 63.7386 130.156 63.2131 130.781 62.8097C131.406 62.4062 132.111 62.2045 132.895 62.2045C133.043 62.2045 133.227 62.2074 133.449 62.2131C133.67 62.2187 133.838 62.2273 133.952 62.2386V64.2841C133.883 64.267 133.727 64.2415 133.483 64.2074C133.244 64.1676 132.991 64.1477 132.724 64.1477C132.088 64.1477 131.52 64.2812 131.02 64.5483C130.526 64.8097 130.133 65.1733 129.844 65.6392C129.56 66.0994 129.418 66.625 129.418 67.2159V75.5H127.406ZM142.849 62.4091V64.1136H136.065V62.4091H142.849ZM138.043 59.2727H140.054V71.75C140.054 72.3182 140.136 72.7443 140.301 73.0284C140.472 73.3068 140.687 73.4943 140.949 73.5909C141.216 73.6818 141.497 73.7273 141.793 73.7273C142.014 73.7273 142.196 73.7159 142.338 73.6932C142.48 73.6648 142.594 73.642 142.679 73.625L143.088 75.4318C142.952 75.483 142.761 75.5341 142.517 75.5852C142.273 75.642 141.963 75.6705 141.588 75.6705C141.02 75.6705 140.463 75.5483 139.918 75.304C139.378 75.0597 138.929 74.6875 138.571 74.1875C138.219 73.6875 138.043 73.0568 138.043 72.2955V59.2727ZM147.886 67.625V75.5H145.875V62.4091H147.818V64.4545H147.989C148.295 63.7898 148.761 63.2557 149.386 62.8523C150.011 62.4432 150.818 62.2386 151.807 62.2386C152.693 62.2386 153.469 62.4205 154.133 62.7841C154.798 63.142 155.315 63.6875 155.685 64.4205C156.054 65.1477 156.239 66.0682 156.239 67.1818V75.5H154.227V67.3182C154.227 66.2898 153.96 65.4886 153.426 64.9148C152.892 64.3352 152.159 64.0455 151.227 64.0455C150.585 64.0455 150.011 64.1847 149.506 64.4631C149.006 64.7415 148.611 65.1477 148.321 65.6818C148.031 66.2159 147.886 66.8636 147.886 67.625ZM165.403 75.7727C164.141 75.7727 163.053 75.4943 162.138 74.9375C161.229 74.375 160.528 73.5909 160.033 72.5852C159.545 71.5739 159.3 70.3977 159.3 69.0568C159.3 67.7159 159.545 66.5341 160.033 65.5114C160.528 64.483 161.215 63.6818 162.096 63.108C162.982 62.5284 164.016 62.2386 165.198 62.2386C165.88 62.2386 166.553 62.3523 167.218 62.5795C167.883 62.8068 168.488 63.1761 169.033 63.6875C169.579 64.1932 170.013 64.8636 170.337 65.6989C170.661 66.5341 170.823 67.5625 170.823 68.7841V69.6364H160.732V67.8977H168.778C168.778 67.1591 168.63 66.5 168.334 65.9205C168.045 65.3409 167.63 64.8835 167.09 64.5483C166.556 64.2131 165.925 64.0455 165.198 64.0455C164.397 64.0455 163.704 64.2443 163.119 64.642C162.539 65.0341 162.093 65.5455 161.78 66.1761C161.468 66.8068 161.312 67.483 161.312 68.2045V69.3636C161.312 70.3523 161.482 71.1903 161.823 71.8778C162.17 72.5597 162.65 73.0795 163.263 73.4375C163.877 73.7898 164.59 73.9659 165.403 73.9659C165.931 73.9659 166.408 73.892 166.834 73.7443C167.266 73.5909 167.638 73.3636 167.951 73.0625C168.263 72.7557 168.505 72.375 168.675 71.9205L170.619 72.4659C170.414 73.125 170.07 73.7045 169.587 74.2045C169.104 74.6989 168.508 75.0852 167.798 75.3636C167.087 75.6364 166.289 75.7727 165.403 75.7727ZM173.883 75.5V62.4091H175.826V64.3864H175.962C176.201 63.7386 176.633 63.2131 177.258 62.8097C177.883 62.4062 178.587 62.2045 179.371 62.2045C179.519 62.2045 179.704 62.2074 179.925 62.2131C180.147 62.2187 180.315 62.2273 180.428 62.2386V64.2841C180.36 64.267 180.204 64.2415 179.959 64.2074C179.721 64.1676 179.468 64.1477 179.201 64.1477C178.565 64.1477 177.996 64.2812 177.496 64.5483C177.002 64.8097 176.61 65.1733 176.32 65.6392C176.036 66.0994 175.894 66.625 175.894 67.2159V75.5H173.883Z" fill="black"/>
</svg>
