<svg xmlns="http://www.w3.org/2000/svg" viewBox="0 0 242.578 45.63" width="243" height="46" aria-label="Mushrooms">
  <path d="M15.82 14.91L15.82 25.45L10.55 25.45L10.55 14.91L5.27 14.91L5.27 36L0 36L0 9.63L26.37 9.63L26.37 36L21.09 36L21.09 14.91L15.82 14.91ZM47.46 30.73L47.46 9.63L52.73 9.63L52.73 36L31.64 36L31.64 9.63L36.91 9.63L36.91 30.73L47.46 30.73ZM73.83 30.73L73.83 25.45L58.01 25.45L58.01 9.63L79.10 9.63L79.10 14.91L63.28 14.91L63.28 20.18L79.10 20.18L79.10 36L58.01 36L58.01 30.73L73.83 30.73ZM100.20 20.18L100.20 9.63L105.47 9.63L105.47 36L100.20 36L100.20 25.45L89.65 25.45L89.65 36L84.38 36L84.38 9.63L89.65 9.63L89.65 20.18L100.20 20.18ZM121.29 20.18L121.29 14.91L116.02 14.91L116.02 20.18L121.29 20.18ZM126.56 25.45L116.02 25.45L116.02 36L110.74 36L110.74 9.63L126.56 9.63L126.56 20.18L131.84 20.18L131.84 36L126.56 36L126.56 25.45ZM158.20 9.63L158.20 36L137.11 36L137.11 9.63L158.20 9.63ZM152.93 30.73L152.93 14.91L142.38 14.91L142.38 30.73L152.93 30.73ZM184.57 9.63L184.57 36L163.48 36L163.48 9.63L184.57 9.63ZM179.30 30.73L179.30 14.91L168.75 14.91L168.75 30.73L179.30 30.73ZM205.66 14.91L205.66 25.45L200.39 25.45L200.39 14.91L195.12 14.91L195.12 36L189.84 36L189.84 9.63L216.21 9.63L216.21 36L210.94 36L210.94 14.91L205.66 14.91ZM237.30 30.73L237.30 25.45L221.48 25.45L221.48 9.63L242.58 9.63L242.58 14.91L226.76 14.91L226.76 20.18L242.58 20.18L242.58 36L221.48 36L221.48 30.73L237.30 30.73Z"/>
</svg>
