<svg xmlns="http://www.w3.org/2000/svg" xmlns:xlink="http://www.w3.org/1999/xlink" width="300" zoomAndPan="magnify" viewBox="0 0 224.87999 187.499995" height="250" preserveAspectRatio="xMidYMid meet" version="1.0"><defs><clipPath id="c55e5147d9"><path d="M 0.238281 0 L 224.519531 0 L 224.519531 187 L 0.238281 187 Z M 0.238281 0 " clip-rule="nonzero"/></clipPath><clipPath id="ded489fffd"><path d="M 22.726562 77 L 46 77 L 46 123 L 22.726562 123 Z M 22.726562 77 " clip-rule="nonzero"/></clipPath><clipPath id="6a190a7b5f"><path d="M 179 77 L 202.246094 77 L 202.246094 123 L 179 123 Z M 179 77 " clip-rule="nonzero"/></clipPath><clipPath id="629ecac391"><path d="M 104 18.699219 L 121 18.699219 L 121 36 L 104 36 Z M 104 18.699219 " clip-rule="nonzero"/></clipPath><clipPath id="e3b5416b3a"><path d="M 101 142 L 130 142 L 130 164.5625 L 101 164.5625 Z M 101 142 " clip-rule="nonzero"/></clipPath></defs><g clip-path="url(#c55e5147d9)"><path fill="#ffffff" d="M 0.238281 0 L 224.640625 0 L 224.640625 187 L 0.238281 187 Z M 0.238281 0 " fill-opacity="1" fill-rule="nonzero"/><path fill="#ffffff" d="M 0.238281 0 L 224.640625 0 L 224.640625 187 L 0.238281 187 Z M 0.238281 0 " fill-opacity="1" fill-rule="nonzero"/></g><path fill="#111111" d="M 137.730469 100.046875 C 134.632812 100.046875 132.121094 97.535156 132.121094 94.4375 C 132.121094 91.335938 134.632812 88.824219 137.730469 88.824219 C 140.828125 88.824219 143.339844 91.335938 143.339844 94.4375 C 143.339844 97.535156 140.828125 100.046875 137.730469 100.046875 Z M 112.484375 118.25 C 104.742188 118.25 98.460938 113.226562 98.460938 107.027344 L 126.511719 107.027344 C 126.511719 113.226562 120.230469 118.25 112.484375 118.25 Z M 87.242188 100.046875 C 84.144531 100.046875 81.632812 97.535156 81.632812 94.4375 C 81.632812 91.335938 84.144531 88.824219 87.242188 88.824219 C 90.339844 88.824219 92.851562 91.335938 92.851562 94.4375 C 92.851562 97.535156 90.339844 100.046875 87.242188 100.046875 Z M 134.925781 66.386719 L 90.046875 66.386719 C 80.753906 66.386719 72.339844 70.152344 66.246094 76.246094 C 60.15625 82.335938 56.386719 90.75 56.386719 100.046875 C 56.386719 118.636719 71.457031 133.707031 90.046875 133.707031 L 134.925781 133.707031 C 144.21875 133.707031 152.632812 129.9375 158.726562 123.847656 C 164.816406 117.753906 168.585938 109.339844 168.585938 100.046875 C 168.585938 81.453125 153.515625 66.386719 134.925781 66.386719 " fill-opacity="1" fill-rule="nonzero"/><path fill="#111111" d="M 112.484375 156.144531 L 95.65625 156.144531 C 88.085938 156.144531 80.738281 154.664062 73.820312 151.738281 C 67.140625 148.910156 61.140625 144.867188 55.988281 139.714844 C 50.839844 134.5625 46.792969 128.5625 43.96875 121.882812 C 41.042969 114.964844 39.558594 107.617188 39.558594 100.046875 C 39.558594 92.472656 41.042969 85.125 43.96875 78.207031 C 46.792969 71.527344 50.839844 65.527344 55.988281 60.375 C 61.140625 55.226562 67.140625 51.179688 73.820312 48.355469 C 80.738281 45.429688 88.085938 43.945312 95.65625 43.945312 L 129.316406 43.945312 C 136.886719 43.945312 144.234375 45.429688 151.152344 48.355469 C 157.832031 51.179688 163.832031 55.226562 168.984375 60.375 C 174.132812 65.527344 178.179688 71.527344 181.003906 78.207031 C 183.929688 85.125 185.414062 92.472656 185.414062 100.046875 L 179.804688 100.046875 C 179.804688 72.203125 157.15625 49.554688 129.316406 49.554688 L 95.65625 49.554688 C 67.816406 49.554688 45.167969 72.203125 45.167969 100.046875 C 45.167969 127.886719 67.816406 150.535156 95.65625 150.535156 L 112.484375 150.535156 L 112.484375 156.144531 " fill-opacity="1" fill-rule="nonzero"/><g clip-path="url(#ded489fffd)"><path fill="#111111" d="M 45.167969 122.484375 C 32.777344 122.484375 22.730469 112.4375 22.730469 100.046875 C 22.730469 87.652344 32.777344 77.605469 45.167969 77.605469 L 45.167969 122.484375 " fill-opacity="1" fill-rule="nonzero"/></g><g clip-path="url(#6a190a7b5f)"><path fill="#111111" d="M 179.804688 122.484375 C 192.199219 122.484375 202.242188 112.4375 202.242188 100.046875 C 202.242188 87.652344 192.199219 77.605469 179.804688 77.605469 L 179.804688 122.484375 " fill-opacity="1" fill-rule="nonzero"/></g><path fill="#111111" d="M 126.511719 69.191406 C 126.511719 75.386719 120.230469 80.410156 112.484375 80.410156 C 104.742188 80.410156 98.460938 75.386719 98.460938 69.191406 C 98.460938 62.992188 104.742188 57.96875 112.484375 57.96875 C 120.230469 57.96875 126.511719 62.992188 126.511719 69.191406 " fill-opacity="1" fill-rule="nonzero"/><g clip-path="url(#629ecac391)"><path fill="#111111" d="M 120.902344 27.113281 C 120.902344 31.761719 117.132812 35.53125 112.484375 35.53125 C 107.839844 35.53125 104.070312 31.761719 104.070312 27.113281 C 104.070312 22.46875 107.839844 18.699219 112.484375 18.699219 C 117.132812 18.699219 120.902344 22.46875 120.902344 27.113281 " fill-opacity="1" fill-rule="nonzero"/></g><g clip-path="url(#e3b5416b3a)"><path fill="#111111" d="M 129.316406 153.339844 C 129.316406 159.539062 123.035156 164.5625 115.292969 164.5625 C 107.546875 164.5625 101.265625 159.539062 101.265625 153.339844 C 101.265625 147.144531 107.546875 142.121094 115.292969 142.121094 C 123.035156 142.121094 129.316406 147.144531 129.316406 153.339844 " fill-opacity="1" fill-rule="nonzero"/></g><path fill="#111111" d="M 115.292969 77.726562 L 109.679688 77.726562 L 109.679688 27.113281 L 115.292969 27.113281 L 115.292969 77.726562 " fill-opacity="1" fill-rule="nonzero"/></svg>