<svg width="18" height="18" viewBox="0 0 18 18" fill="none" xmlns="http://www.w3.org/2000/svg">
<rect width="18" height="18" fill="#A8200D"/>
<path d="M15.7202 15.3524H14.7279V14.5158H15.7202C15.8981 14.5158 16.0386 14.3646 16.0386 14.173C16.0386 13.9815 15.8981 13.8303 15.7202 13.8303H14.7279V13.7092C14.7279 13.5178 14.5875 13.3666 14.4097 13.3666C13.614 13.3666 13.0429 13.7496 12.837 14.3847C12.8089 14.3746 12.7809 14.3646 12.7434 14.3646H3.03591V2.66092H14.7654V10.7254C14.7654 11.0379 15.0087 11.3001 15.299 11.3001C15.5892 11.3001 15.8326 11.048 15.8326 10.7254V2.08631C15.8326 1.77381 15.5892 1.51172 15.299 1.51172H2.50234C2.21214 1.51172 1.96875 1.76373 1.96875 2.08631V14.9391C1.96875 15.2516 2.20277 15.5137 2.50234 15.5137H12.7434C12.7715 15.5137 12.7996 15.5036 12.8277 15.4936C13.0617 16.2295 13.7544 16.5117 14.4097 16.5117C14.5875 16.5117 14.7279 16.3605 14.7279 16.169V16.048H15.7202C15.8981 16.048 16.0386 15.8968 16.0386 15.7052C16.0386 15.5138 15.8981 15.3524 15.7202 15.3524Z" fill="white"/>
<path d="M7.31758 5.87197C7.31758 5.3928 6.92467 4.99989 6.44549 4.99989C5.96632 4.99989 5.57339 5.3928 5.57339 5.87197C5.57339 6.35115 5.96632 6.74406 6.44549 6.74406C6.92467 6.74406 7.31758 6.35115 7.31758 5.87197Z" fill="white"/>
<path d="M12.4338 5.87197C12.4338 5.3928 12.0409 4.99989 11.5617 4.99989C11.0826 4.99989 10.6897 5.3928 10.6897 5.87197C10.6897 6.35115 11.0826 6.74406 11.5617 6.74406C12.0409 6.74406 12.4338 6.35115 12.4338 5.87197Z" fill="white"/>
<path d="M9.19161 10.9293C8.20716 10.9293 7.39817 10.778 7.34943 10.778C7.01803 10.7175 6.80359 10.3947 6.86208 10.0518C6.92056 9.70889 7.22272 9.48699 7.56387 9.5475C7.58335 9.5475 9.24034 9.85008 10.5367 9.5475C10.8681 9.47691 11.1897 9.68871 11.258 10.0215C11.3262 10.3645 11.1215 10.6973 10.7999 10.7679C10.2638 10.8889 9.7082 10.9293 9.19161 10.9293Z" fill="white"/>
</svg>
