<svg xmlns="http://www.w3.org/2000/svg" xmlns:xlink="http://www.w3.org/1999/xlink" width="1200" zoomAndPan="magnify" viewBox="0 0 900 899.99999" height="1200" preserveAspectRatio="xMidYMid meet" version="1.0"><defs><clipPath id="82a496c212"><path d="M 193.117188 193.117188 L 706.867188 193.117188 L 706.867188 702 L 193.117188 702 Z M 193.117188 193.117188 " clip-rule="nonzero"/></clipPath></defs><rect x="-90" width="1080" fill="#ffffff" y="-89.999999" height="1079.999988" fill-opacity="1"/><rect x="-90" width="1080" fill="#000000" y="-89.999999" height="1079.999988" fill-opacity="1"/><path fill="#ffffff" d="M 392.269531 343.929688 C 392.269531 326.804688 378.179688 312.71875 361.054688 312.71875 C 343.929688 312.71875 329.84375 326.804688 329.84375 343.929688 C 329.84375 361.054688 343.929688 375.140625 361.054688 375.140625 C 378.179688 375.140625 392.269531 361.054688 392.269531 343.929688 Z M 392.269531 343.929688 " fill-opacity="1" fill-rule="nonzero"/><path fill="#ffffff" d="M 568.769531 343.929688 C 568.769531 326.804688 554.683594 312.71875 537.558594 312.71875 C 520.433594 312.71875 506.34375 326.804688 506.34375 343.929688 C 506.34375 361.054688 520.433594 375.140625 537.558594 375.140625 C 554.683594 375.140625 568.769531 361.054688 568.769531 343.929688 Z M 568.769531 343.929688 " fill-opacity="1" fill-rule="nonzero"/><g clip-path="url(#82a496c212)"><path fill="#ffffff" d="M 695.554688 662.128906 L 659.367188 662.128906 L 659.367188 633.679688 L 695.554688 633.679688 C 702.183594 633.679688 707.152344 628.433594 707.152344 622.078125 C 707.152344 615.726562 701.90625 610.476562 695.554688 610.476562 L 659.367188 610.476562 L 659.367188 606.335938 C 659.367188 599.707031 654.121094 594.734375 647.765625 594.734375 C 618.765625 594.734375 597.773438 607.714844 590.316406 629.261719 C 589.210938 628.984375 588.382812 628.707031 587 628.707031 L 232.613281 628.707031 L 232.613281 231.785156 L 661.027344 231.785156 L 661.027344 505.238281 C 661.027344 515.738281 669.863281 524.851562 680.636719 524.851562 C 691.410156 524.851562 700.25 516.289062 700.25 505.238281 L 700.25 212.453125 C 700.25 201.957031 691.410156 192.839844 680.636719 192.839844 L 213.28125 192.839844 C 202.785156 192.839844 193.667969 201.402344 193.667969 212.453125 L 193.667969 648.320312 C 193.667969 658.816406 202.230469 667.929688 213.28125 667.929688 L 587.277344 667.929688 C 588.382812 667.929688 589.210938 667.65625 590.316406 667.378906 C 598.878906 692.238281 624.289062 701.90625 648.042969 701.90625 C 654.671875 701.90625 659.644531 696.65625 659.644531 690.304688 L 659.644531 686.160156 L 695.828125 686.160156 C 702.457031 686.160156 707.429688 680.914062 707.429688 674.558594 C 707.429688 667.65625 702.183594 662.128906 695.554688 662.128906 Z M 636.167969 677.324219 C 623.460938 674.835938 610.203125 667.65625 610.203125 648.320312 C 610.203125 628.433594 623.460938 621.527344 636.167969 619.316406 Z M 636.167969 677.324219 " fill-opacity="1" fill-rule="nonzero"/></g><path fill="#ffffff" d="M 454.96875 519.050781 C 420.441406 519.050781 391.992188 513.804688 390.335938 513.804688 C 378.734375 511.871094 371.273438 500.820312 373.207031 489.21875 C 375.140625 477.617188 385.914062 470.160156 397.792969 472.09375 C 398.34375 472.09375 456.625 482.3125 501.925781 472.09375 C 513.527344 469.609375 524.851562 476.789062 527.335938 488.113281 C 529.824219 499.714844 522.640625 511.039062 511.316406 513.527344 C 492.535156 517.667969 473.199219 519.050781 454.96875 519.050781 Z M 454.96875 519.050781 " fill-opacity="1" fill-rule="nonzero"/></svg>