<svg xmlns="http://www.w3.org/2000/svg" xmlns:xlink="http://www.w3.org/1999/xlink" width="1200" zoomAndPan="magnify" viewBox="0 0 900 899.99999" height="1200" preserveAspectRatio="xMidYMid meet" version="1.0"><defs><clipPath id="8708d1fe9c"><path d="M 135 135 L 765 135 L 765 759 L 135 759 Z M 135 135 " clip-rule="nonzero"/></clipPath></defs><rect x="-90" width="1080" fill="#ffffff" y="-89.999999" height="1079.999988" fill-opacity="1"/><rect x="-90" width="1080" fill="#a8200d" y="-89.999999" height="1079.999988" fill-opacity="1"/><path fill="#ffffff" d="M 379.210938 319.933594 C 379.210938 298.933594 361.933594 281.660156 340.933594 281.660156 C 319.933594 281.660156 302.660156 298.9375 302.660156 319.933594 C 302.660156 340.933594 319.933594 358.210938 340.933594 358.210938 C 361.933594 358.210938 379.210938 340.933594 379.210938 319.933594 Z M 379.210938 319.933594 " fill-opacity="1" fill-rule="nonzero"/><path fill="#ffffff" d="M 595.644531 319.933594 C 595.644531 298.933594 578.371094 281.660156 557.371094 281.660156 C 536.371094 281.660156 519.097656 298.9375 519.097656 319.933594 C 519.097656 340.933594 536.371094 358.210938 557.371094 358.210938 C 578.371094 358.210938 595.644531 340.933594 595.644531 319.933594 Z M 595.644531 319.933594 " fill-opacity="1" fill-rule="nonzero"/><g clip-path="url(#8708d1fe9c)"><path fill="#ffffff" d="M 751.113281 710.128906 L 706.742188 710.128906 L 706.742188 675.242188 L 751.113281 675.242188 C 759.242188 675.242188 765.339844 668.804688 765.339844 661.015625 C 765.339844 653.226562 758.902344 646.789062 751.113281 646.789062 L 706.742188 646.789062 L 706.742188 641.710938 C 706.742188 633.582031 700.304688 627.484375 692.515625 627.484375 C 656.953125 627.484375 631.210938 643.402344 622.0625 669.824219 C 620.710938 669.484375 619.695312 669.144531 618 669.144531 L 183.433594 669.144531 L 183.433594 182.417969 L 708.773438 182.417969 L 708.773438 517.742188 C 708.773438 530.613281 719.613281 541.789062 732.824219 541.789062 C 746.03125 541.789062 756.871094 531.289062 756.871094 517.742188 L 756.871094 158.710938 C 756.871094 145.839844 746.03125 134.660156 732.824219 134.660156 L 159.726562 134.660156 C 146.855469 134.660156 135.675781 145.160156 135.675781 158.710938 L 135.675781 693.195312 C 135.675781 706.066406 146.175781 717.242188 159.726562 717.242188 L 618.339844 717.242188 C 619.695312 717.242188 620.710938 716.902344 622.0625 716.566406 C 632.5625 747.046875 663.726562 758.902344 692.855469 758.902344 C 700.984375 758.902344 707.082031 752.46875 707.082031 744.675781 L 707.082031 739.597656 L 751.453125 739.597656 C 759.582031 739.597656 765.675781 733.160156 765.675781 725.371094 C 765.675781 716.902344 759.242188 710.128906 751.113281 710.128906 Z M 678.289062 728.757812 C 662.710938 725.710938 646.453125 716.902344 646.453125 693.195312 C 646.453125 668.804688 662.710938 660.339844 678.289062 657.628906 Z M 678.289062 728.757812 " fill-opacity="1" fill-rule="nonzero"/></g><path fill="#ffffff" d="M 456.097656 534.675781 C 413.757812 534.675781 378.871094 528.242188 376.839844 528.242188 C 362.613281 525.871094 353.46875 512.324219 355.839844 498.097656 C 358.210938 483.871094 371.417969 474.726562 385.984375 477.097656 C 386.660156 477.097656 458.128906 489.628906 513.675781 477.097656 C 527.902344 474.046875 541.789062 482.855469 544.839844 496.742188 C 547.886719 510.96875 539.082031 524.855469 525.195312 527.902344 C 502.160156 532.984375 478.453125 534.675781 456.097656 534.675781 Z M 456.097656 534.675781 " fill-opacity="1" fill-rule="nonzero"/></svg>