<?xml version="1.0" encoding="UTF-8"?>
<svg version="1.1" xmlns="http://www.w3.org/2000/svg" width="196" height="182">
<path d="M0 0 C64.68 0 129.36 0 196 0 C196 60.06 196 120.12 196 182 C131.32 182 66.64 182 0 182 C0 121.94 0 61.88 0 0 Z " fill="#FCFCFC" transform="translate(0,0)"/>
<path d="M0 0 C7.92387352 4.40571645 13.33027747 11.32340179 16 20 C17.42648284 27.47638878 17.02122465 34.96735716 16.87304688 42.546875 C16.85661133 44.10921875 16.85661133 44.10921875 16.83984375 45.703125 C16.82300537 46.64833008 16.80616699 47.59353516 16.78881836 48.56738281 C16.82623096 51.26006142 16.82623096 51.26006142 19 54 C19.25350038 58.51230672 18.55583874 62.12918598 16.125 65.9375 C14 68 14 68 11 70 C9.94676195 72.17369943 9.94676195 72.17369943 9.125 74.6875 C7.3252429 79.4568563 5.24749542 83.06882134 2 87 C1.34 87 0.68 87 0 87 C0 91.95 0 96.9 0 102 C0.66 102 1.32 102 2 102 C2 102.66 2 103.32 2 104 C3.765625 104.44140625 5.53125 104.8828125 7.296875 105.32421875 C8.02390625 105.50597656 8.7509375 105.68773438 9.5 105.875 C10.19609375 106.04902344 10.8921875 106.22304687 11.609375 106.40234375 C13.02640556 106.75660139 14.44331472 107.11134499 15.86010742 107.46655273 C17.28379918 107.82146049 18.70844761 108.17255291 20.1340332 108.51977539 C33.88279848 111.886126 48.69126862 116.89168346 57 129 C57.45761719 129.63035156 57.91523438 130.26070312 58.38671875 130.91015625 C61.4326971 135.65749188 62.94472569 140.70592104 64.3125 146.125 C64.48418701 146.77460693 64.65587402 147.42421387 64.83276367 148.09350586 C66.56363223 155.63546988 66 161.80214843 66 170 C9.9 170 -46.2 170 -104 170 C-104 152.43883187 -102.05305255 136.60828514 -90 123 C-87.84375 121.15625 -87.84375 121.15625 -85.5 119.5 C-84.7471875 118.9534375 -83.994375 118.406875 -83.21875 117.84375 C-73.09362573 112.04392153 -62.17921542 109.29018148 -50.91992188 106.59570312 C-49.81068359 106.31533203 -48.70144531 106.03496094 -47.55859375 105.74609375 C-46.06283813 105.38535767 -46.06283813 105.38535767 -44.53686523 105.01733398 C-41.57138745 103.82811775 -40.57818248 102.74289999 -39 100 C-38.02420472 95.0503138 -37.73418177 90.0320602 -40.46484375 85.6484375 C-41.68744739 84.30951851 -42.94837931 83.00453595 -44.24609375 81.73828125 C-47.26460262 78.74666333 -48.79244046 75.48751001 -49.375 71.3125 C-50.25962922 68.0393719 -52.15081587 67.69594294 -55 66 C-58.21860027 61.2275927 -58.37726453 57.56465188 -58 52 C-57.67 51.67 -57.34 51.34 -57 51 C-56.93695284 49.4439584 -56.94070843 47.88511561 -56.97265625 46.328125 C-56.98675537 45.3594751 -57.00085449 44.3908252 -57.01538086 43.39282227 C-57.03093018 42.35569092 -57.04647949 41.31855957 -57.0625 40.25 C-57.16827454 16.10928007 -57.16827454 16.10928007 -49.8515625 8.29296875 C-48 7 -48 7 -44 7 C-43.95875 6.278125 -43.9175 5.55625 -43.875 4.8125 C-42.48390833 0.34113393 -39.08817864 -1.66692167 -35.25 -4.1171875 C-24.60297671 -8.29466539 -10.0596846 -4.36271498 0 0 Z " fill="#37383B" transform="translate(118,10)"/>
<path d="M0 0 C7.92387352 4.40571645 13.33027747 11.32340179 16 20 C17.42648284 27.47638878 17.02122465 34.96735716 16.87304688 42.546875 C16.85661133 44.10921875 16.85661133 44.10921875 16.83984375 45.703125 C16.82300537 46.64833008 16.80616699 47.59353516 16.78881836 48.56738281 C16.82623096 51.26006142 16.82623096 51.26006142 19 54 C19.25350038 58.51230672 18.55583874 62.12918598 16.125 65.9375 C14 68 14 68 11 70 C9.94676195 72.17369943 9.94676195 72.17369943 9.125 74.6875 C7.3252429 79.4568563 5.24749542 83.06882134 2 87 C1.34 87 0.68 87 0 87 C0 91.95 0 96.9 0 102 C0.66 102 1.32 102 2 102 C2 102.66 2 103.32 2 104 C4.97 104.495 4.97 104.495 8 105 C7.01 105.495 7.01 105.495 6 106 C5.70351562 106.60714844 5.40703125 107.21429688 5.1015625 107.83984375 C2.58542314 112.77397519 -2.62619232 116.67510859 -7.625 118.9375 C-16.224068 121.67356709 -25.99570113 121.00214943 -34 117 C-39.49795447 114.03110459 -42.53969768 110.05547715 -46 105 C-44.824375 104.5978125 -44.824375 104.5978125 -43.625 104.1875 C-40.71885077 103.15185568 -40.71885077 103.15185568 -39 100 C-38.1688734 95.03530571 -37.73740772 90.03567685 -40.4609375 85.64453125 C-41.68621527 84.30809959 -42.94840073 83.00451505 -44.24609375 81.73828125 C-47.26460262 78.74666333 -48.79244046 75.48751001 -49.375 71.3125 C-50.25962922 68.0393719 -52.15081587 67.69594294 -55 66 C-58.21860027 61.2275927 -58.37726453 57.56465188 -58 52 C-57.505 51.505 -57.505 51.505 -57 51 C-56.93695284 49.4439584 -56.94070843 47.88511561 -56.97265625 46.328125 C-56.98675537 45.3594751 -57.00085449 44.3908252 -57.01538086 43.39282227 C-57.03093018 42.35569092 -57.04647949 41.31855957 -57.0625 40.25 C-57.16827454 16.10928007 -57.16827454 16.10928007 -49.8515625 8.29296875 C-48 7 -48 7 -44 7 C-43.95875 6.278125 -43.9175 5.55625 -43.875 4.8125 C-42.48390833 0.34113393 -39.08817864 -1.66692167 -35.25 -4.1171875 C-24.60297671 -8.29466539 -10.0596846 -4.36271498 0 0 Z " fill="#FCCCAC" transform="translate(118,10)"/>
<path d="M0 0 C7.92387352 4.40571645 13.33027747 11.32340179 16 20 C18.07181787 29.94472576 17.47823099 40.19771134 15 50 C12.64453125 49.83984375 12.64453125 49.83984375 10 49 C8.63671875 46.56640625 8.63671875 46.56640625 7.6875 43.5625 C7.36136719 42.57378906 7.03523438 41.58507813 6.69921875 40.56640625 C6 38 6 38 6 36 C5.46375 35.731875 4.9275 35.46375 4.375 35.1875 C2.59149144 34.29574572 0.82296802 33.37391916 -0.9375 32.4375 C-5.317257 30.38169569 -9.3231236 29.88694331 -14.125 29.75390625 C-15.07890625 29.72103516 -16.0328125 29.68816406 -17.015625 29.65429688 C-19.00509212 29.59310253 -20.9946831 29.5358102 -22.984375 29.48242188 C-23.93828125 29.44826172 -24.8921875 29.41410156 -25.875 29.37890625 C-27.17050781 29.34132202 -27.17050781 29.34132202 -28.4921875 29.30297852 C-31.26542954 28.96793243 -33.42819696 28.06070961 -36 27 C-36.99 27 -37.98 27 -39 27 C-42.53313756 33.19476785 -45.66985395 39.23170817 -47.9453125 46.00390625 C-49.25806998 48.48842133 -50.35710223 49.13103167 -53 50 C-55 49 -55 49 -56.109375 46.37890625 C-58.62045347 36.85222695 -57.90443555 24.41087851 -55 15 C-53.08799006 11.81171139 -51.0633077 9.13914525 -48 7 C-46.68 7 -45.36 7 -44 7 C-43.95875 6.278125 -43.9175 5.55625 -43.875 4.8125 C-42.48390833 0.34113393 -39.08817864 -1.66692167 -35.25 -4.1171875 C-24.60297671 -8.29466539 -10.0596846 -4.36271498 0 0 Z " fill="#252424" transform="translate(118,10)"/>
<path d="M0 0 C1.98 0.66 3.96 1.32 6 2 C6 2.66 6 3.32 6 4 C14.50319533 5.59834499 23.84777828 6.33499979 32 3 C32.33 2.34 32.66 1.68 33 1 C34.32 1 35.64 1 37 1 C37.37272113 8.57866307 37.37272113 8.57866307 35.5625 10.625 C35.046875 11.07875 34.53125 11.5325 34 12 C33.2730774 15.10839021 33.2730774 15.10839021 33 18 C33.70125 17.67 34.4025 17.34 35.125 17 C38.26003116 15.90955438 40.70563182 15.84677357 44 16 C41.44281621 21.87635668 36.18126628 26.30966397 30.375 28.9375 C21.775932 31.67356709 12.00429887 31.00214943 4 27 C-1.49795447 24.03110459 -4.53969768 20.05547715 -8 15 C-7.21625 14.731875 -6.4325 14.46375 -5.625 14.1875 C-2.71885077 13.15185568 -2.71885077 13.15185568 -1 10 C-0.54398739 7.49103314 -0.54398739 7.49103314 -0.375 4.8125 C-0.30023438 3.91144531 -0.22546875 3.01039062 -0.1484375 2.08203125 C-0.09945312 1.39496094 -0.05046875 0.70789063 0 0 Z " fill="#F8C3A2" transform="translate(80,100)"/>
<path d="M0 0 C0.66 0 1.32 0 2 0 C1.57316761 1.58624235 1.13303842 3.1689098 0.6875 4.75 C0.44386719 5.63171875 0.20023438 6.5134375 -0.05078125 7.421875 C-1.02125331 10.05772505 -2.21005644 11.85407326 -4 14 C-5.875 13.875 -5.875 13.875 -8 13 C-9.69726294 9.26602153 -10.23990744 6.07842654 -10 2 C-9.01 3.485 -9.01 3.485 -8 5 C-5.83333333 4.16666667 -5.83333333 4.16666667 -5 2 C-3.68 2 -2.36 2 -1 2 C-0.67 1.34 -0.34 0.68 0 0 Z " fill="#312B29" transform="translate(71,46)"/>
<path d="M0 0 C1.4606285 2.64738916 2 3.89448334 2 7 C-0.50823147 9.77939163 -2.88157129 11.92104752 -6 14 C-6.66 13.34 -7.32 12.68 -8 12 C-8.99 13.32 -9.98 14.64 -11 16 C-10.33333333 12.66666667 -9.66666667 9.33333333 -9 6 C-8.67 6.99 -8.34 7.98 -8 9 C-5.57080135 9.13440778 -5.57080135 9.13440778 -3 8 C-1.61706907 5.44481903 -0.78208351 2.79133871 0 0 Z " fill="#DBB89F" transform="translate(71,50)"/>
<path d="M0 0 C0.99 0 1.98 0 3 0 C2.566875 0.8353125 2.566875 0.8353125 2.125 1.6875 C0.96344797 3.99136638 0.96344797 3.99136638 0.0625 6.4375 C-1.07570696 9.18258737 -2.27088833 11.57924366 -4 14 C-4.99 14 -5.98 14 -7 14 C-5.23570801 9.02790438 -2.6060834 4.56561939 0 0 Z " fill="#E0C1AA" transform="translate(79,36)"/>
<path d="M0 0 C2.96681066 2.96681066 3.58040224 6.6106274 4.8046875 10.56640625 C5.74796516 13.17733906 5.74796516 13.17733906 8.1328125 13.83984375 C8.74898437 13.89269531 9.36515625 13.94554687 10 14 C10.33 12.68 10.66 11.36 11 10 C11 11.65 11 13.3 11 15 C8.25 15.3125 8.25 15.3125 5 15 C2.21994166 12.74589864 1.17502819 10.96339044 0.53515625 7.44140625 C0.27802707 4.95817238 0.09686346 2.49423419 0 0 Z " fill="#CCAF9B" transform="translate(123,46)"/>
<path d="M0 0 C0.66 0 1.32 0 2 0 C1.67 0.99 1.34 1.98 1 3 C0.74195585 8.24689773 1.02118361 12.05295901 3 17 C-0.0109362 14.9927092 -0.63016497 14.16115776 -2 11 C-2.33 11 -2.66 11 -3 11 C-2.67 8.03 -2.34 5.06 -2 2 C-1.34 2 -0.68 2 0 2 C0 1.34 0 0.68 0 0 Z " fill="#FCEDE1" transform="translate(60,59)"/>
<path d="M0 0 C0.33 0 0.66 0 1 0 C1 4.95 1 9.9 1 15 C1.66 15 2.32 15 3 15 C3 15.66 3 16.32 3 17 C4.98 17.33 6.96 17.66 9 18 C9 18.33 9 18.66 9 19 C2.84765625 19.09765625 2.84765625 19.09765625 1 19 C0 18 0 18 -0.11352539 16.23413086 C-0.10828857 15.48526611 -0.10305176 14.73640137 -0.09765625 13.96484375 C-0.09443359 13.15595703 -0.09121094 12.34707031 -0.08789062 11.51367188 C-0.07951172 10.66353516 -0.07113281 9.81339844 -0.0625 8.9375 C-0.05798828 8.08349609 -0.05347656 7.22949219 -0.04882812 6.34960938 C-0.03700373 4.23304337 -0.01906769 2.11651315 0 0 Z " fill="#F6D1B9" transform="translate(117,97)"/>
<path d="M0 0 C5.98993047 -0.3152595 9.63560356 0.31780178 15 3 C14.34 4.32 13.68 5.64 13 7 C12.34 6.38125 11.68 5.7625 11 5.125 C7.29588966 2.50125518 4.42075485 1.89913658 0 1 C0 0.67 0 0.34 0 0 Z " fill="#453A31" transform="translate(109,39)"/>
<path d="M0 0 C1.32 0.33 2.64 0.66 4 1 C3.01 1.495 3.01 1.495 2 2 C1.67 2.66 1.34 3.32 1 4 C0 6 0 6 -2 7 C-2.33 7.66 -2.66 8.32 -3 9 C-4.32 8.67 -5.64 8.34 -7 8 C-4.69 5.36 -2.38 2.72 0 0 Z " fill="#534B48" transform="translate(124,116)"/>
<path d="M0 0 C1.32 0 2.64 0 4 0 C4 2.64 4 5.28 4 8 C3.01 8.33 2.02 8.66 1 9 C0.67 6.03 0.34 3.06 0 0 Z " fill="#F6BA97" transform="translate(113,101)"/>
<path d="M0 0 C0.66 0.33 1.32 0.66 2 1 C1.67 1.99 1.34 2.98 1 4 C0.34 4 -0.32 4 -1 4 C-1.33 4.99 -1.66 5.98 -2 7 C-2.99 7.33 -3.98 7.66 -5 8 C-5.66 8.99 -6.32 9.98 -7 11 C-6.67 9.35 -6.34 7.7 -6 6 C-5.01 5.67 -4.02 5.34 -3 5 C-2.67 4.01 -2.34 3.02 -2 2 C-1.34 2 -0.68 2 0 2 C0 1.34 0 0.68 0 0 Z " fill="#FDF2E8" transform="translate(135,73)"/>
<path d="M0 0 C0.66 0.33 1.32 0.66 2 1 C2.5625 2.9375 2.5625 2.9375 3 5 C3.33 5.66 3.66 6.32 4 7 C2.02 7.33 0.04 7.66 -2 8 C-2 6 -2 6 -1 5 C-1 4.01 -1 3.02 -1 2 C-0.67 1.34 -0.34 0.68 0 0 Z " fill="#313235" transform="translate(74,120)"/>
<path d="M0 0 C1.98 0.495 1.98 0.495 4 1 C4 1.66 4 2.32 4 3 C6.64 3 9.28 3 12 3 C12 3.33 12 3.66 12 4 C6.06 4.495 6.06 4.495 0 5 C-0.33 4.01 -0.66 3.02 -1 2 C-0.67 1.34 -0.34 0.68 0 0 Z " fill="#E7E7E7" transform="translate(84,1)"/>
<path d="M0 0 C0.33 0.99 0.66 1.98 1 3 C-4.75 3.125 -4.75 3.125 -7 2 C-7 1.34 -7 0.68 -7 0 C-3.89953913 -1.03348696 -2.94389782 -1.17755913 0 0 Z " fill="#EECBB1" transform="translate(87,123)"/>
<path d="M0 0 C1.32 0 2.64 0 4 0 C4 1.32 4 2.64 4 4 C5.65 4.33 7.3 4.66 9 5 C8.01 5.99 7.02 6.98 6 8 C4.02 5.36 2.04 2.72 0 0 Z " fill="#E1BFA7" transform="translate(73,116)"/>
<path d="M0 0 C0.33 0 0.66 0 1 0 C1 1.98 1 3.96 1 6 C-0.65 6.33 -2.3 6.66 -4 7 C-2.68 4.69 -1.36 2.38 0 0 Z " fill="#FEF1E6" transform="translate(124,90)"/>
<path d="M0 0 C0.33 0.66 0.66 1.32 1 2 C3.02463255 2.65213292 3.02463255 2.65213292 5 3 C2.08517222 3.80967438 0.53886783 4.21845993 -2.3125 3.0625 C-2.869375 2.711875 -3.42625 2.36125 -4 2 C-2.68 1.34 -1.36 0.68 0 0 Z " fill="#D6B69F" transform="translate(88,125)"/>
<path d="M0 0 C0.99 0 1.98 0 3 0 C1.60667426 3.36720387 0.0210714 4.9859524 -3 7 C-3 5.68 -3 4.36 -3 3 C-2.01 3 -1.02 3 0 3 C0 2.01 0 1.02 0 0 Z " fill="#E5BBA6" transform="translate(121,116)"/>
<path d="M0 0 C0.99 0 1.98 0 3 0 C1.70700306 2.88437779 0.34058637 4.87219421 -2 7 C-2 3.89448334 -1.4606285 2.64738916 0 0 Z " fill="#D3B39A" transform="translate(79,36)"/>
<path d="M0 0 C0.33 0.99 0.66 1.98 1 3 C-1.875 3.125 -1.875 3.125 -5 3 C-5.66 2.34 -6.32 1.68 -7 1 C-4.53721199 -0.231394 -2.7204945 -0.07159196 0 0 Z " fill="#413227" transform="translate(89,35)"/>
</svg>
